<svg width="16" height="16" viewBox="0 0 16 16" fill="none" xmlns="http://www.w3.org/2000/svg">
<path d="M8 0C3.6 0 0 3.6 0 8C0 12.4 3.6 16 8 16C12.4 16 16 12.4 16 8C16 3.6 12.4 0 8 0ZM8 14.4C4.48 14.4 1.6 11.52 1.6 8C1.6 4.48 4.48 1.6 8 1.6C11.52 1.6 14.4 4.48 14.4 8C14.4 11.52 11.52 14.4 8 14.4Z" fill="black"/>
<path d="M8.5602 3.28011C7.6002 3.12011 6.6402 3.36011 5.9202 3.92011C5.2002 4.56011 4.8002 5.4401 4.8002 6.4001H6.4002C6.4002 5.9201 6.6402 5.4401 6.9602 5.2001C7.3602 4.8801 7.7602 4.8001 8.3202 4.8801C8.9602 4.9601 9.5202 5.5201 9.6002 6.1601C9.7602 6.9601 9.2802 7.7601 8.4802 8.0001C7.6802 8.1601 7.2002 8.8001 7.2002 9.6001V10.4001H8.8002V9.6001C8.8002 9.5201 8.8002 9.5201 8.8802 9.5201C10.4802 9.0401 11.4402 7.5201 11.2002 5.8401C10.9602 4.56011 9.8402 3.44011 8.5602 3.28011V3.28011Z" fill="black"/>
<path d="M7.1998 11.2001H8.79979V12.8001H7.1998V11.2001Z" fill="black"/>
</svg>
