<svg width="30" height="30" viewBox="0 0 30 30" fill="none" xmlns="http://www.w3.org/2000/svg">
<circle cx="15" cy="15" r="14.5" stroke="#C12088"/>
<g clip-path="url(#clip0)">
<path d="M15.3637 19.1262L21.4779 12.995C21.6781 12.7941 21.6778 12.4689 21.4769 12.2683C21.276 12.0679 20.9506 12.0684 20.7502 12.2694L14.9999 18.0356L9.24957 12.2691C9.04918 12.0683 8.72397 12.0677 8.52307 12.2681C8.42235 12.3686 8.372 12.5003 8.372 12.6321C8.372 12.7634 8.42202 12.8946 8.52203 12.995L14.6361 19.1262C14.7324 19.2229 14.8634 19.2772 14.9999 19.2772C15.1364 19.2772 15.2672 19.2228 15.3637 19.1262Z" fill="#C12088"/>
</g>
<defs>
<clipPath id="clip0">
<rect width="13.2558" height="13.2558" fill="white" transform="translate(21.6279 9.06976) rotate(90)"/>
</clipPath>
</defs>
</svg>
