<svg width="16" height="16" viewBox="0 0 16 16" fill="none" xmlns="http://www.w3.org/2000/svg">
<path d="M2.51999 14.1307H12.026L11.572 12.6607L12.658 13.5927L13.6533 14.4847L15.4667 16V1.65C15.4213 0.758 14.6533 0 13.7013 0L2.52332 0.002C1.57199 0.002 0.799988 0.761333 0.799988 1.65333V12.48C0.799988 13.4207 1.57065 14.1307 2.51999 14.1307ZM9.55199 3.78867L9.52999 3.79667L9.53799 3.78867H9.55199ZM4.46465 4.63467C5.68665 3.74533 6.81932 3.788 6.81932 3.788L6.91066 3.878C5.41532 4.23467 4.73732 4.90267 4.73732 4.90267C4.73732 4.90267 4.91865 4.814 5.23532 4.67867C7.24932 3.88667 9.44866 3.944 11.4847 4.94667C11.4847 4.94667 10.8053 4.322 9.40199 3.922L9.52599 3.8C9.71999 3.80067 10.7467 3.83667 11.8453 4.64C11.8453 4.64 13.0747 6.74 13.0747 9.32C13.034 9.27067 12.312 10.4307 10.454 10.4707C10.454 10.4707 10.1393 10.1147 9.91532 9.804C11.002 9.492 11.4087 8.868 11.4087 8.868C11.052 9.09267 10.7267 9.226 10.4627 9.35933C10.0567 9.538 9.64999 9.626 9.24399 9.716C7.32132 10.028 6.24199 9.506 5.22199 9.092L4.87332 8.91467C4.87332 8.91467 5.27932 9.53867 6.32265 9.85067C6.04866 10.1633 5.77732 10.5187 5.77732 10.5187C3.91999 10.4747 3.24265 9.31467 3.24265 9.31467C3.24265 6.73067 4.46465 4.63467 4.46465 4.63467Z" fill="white"/>
<path d="M9.53865 8.51398C10.0126 8.51398 10.3986 8.11398 10.3986 7.62065C10.3986 7.13065 10.0146 6.73065 9.53865 6.73065V6.73265C9.06665 6.73265 8.67998 7.13132 8.67865 7.62465C8.67865 8.11398 9.06465 8.51398 9.53865 8.51398Z" fill="white"/>
<path d="M6.46003 8.51398C6.93403 8.51398 7.32003 8.11398 7.32003 7.62065C7.32003 7.13065 6.9367 6.73065 6.4627 6.73065L6.46003 6.73265C5.98604 6.73265 5.60004 7.13132 5.60004 7.62465C5.60004 8.11398 5.98604 8.51398 6.46003 8.51398Z" fill="white"/>
</svg>
