<svg width="32" height="32" viewBox="0 0 32 32" fill="none" xmlns="http://www.w3.org/2000/svg">
<path d="M16.9359 4C16.135 4 15.3982 4.26948 14.9497 4.71334L8.28604 11.3871C7.83753 11.8309 7.10069 12.1004 6.29977 12.1004H2V15.3659H7.84668C8.6476 15.3659 9.38444 15.0964 9.83296 14.6526L16.4966 7.99472C16.9451 7.55086 17.6819 7.28137 18.4828 7.28137H21.2998V4H16.9359Z" fill="#7A077F"/>
<path d="M15.0641 28.0002C15.865 28.0002 16.6018 27.7307 17.0503 27.2869L23.7139 20.629C24.1625 20.1852 24.8993 19.9157 25.7002 19.9157H30V16.6343H24.1533C23.3524 16.6343 22.6155 16.9038 22.167 17.3476L15.5034 24.0055C15.0549 24.4494 14.3181 24.7188 13.5172 24.7188H10.7002V27.9844H15.0641V28.0002Z" fill="#1295C9"/>
<path d="M30 10.0557H20.3249C19.524 10.0557 18.7872 10.3252 18.3387 10.769L11.6911 17.4268C11.2426 17.8707 10.5057 18.1402 9.7048 18.1402H2.1762C2.11213 18.1402 2.06407 18.1402 2 18.1402V21.3899C2.06407 21.3899 2.11213 21.3899 2.1762 21.3899H12.2357C13.0366 21.3899 13.7735 21.1204 14.222 20.6765L20.8696 14.0187C21.3181 13.5748 22.0549 13.3053 22.8558 13.3053H29.984V10.0557H30Z" fill="#5C1264"/>
</svg>
