<svg width="30" height="30" viewBox="0 0 30 30" fill="none" xmlns="http://www.w3.org/2000/svg">
<path d="M14.6364 14.1007L8.52212 20.0758C8.32192 20.2715 8.32225 20.5885 8.52316 20.7839C8.72404 20.9792 9.04945 20.9787 9.24982 20.7829L15.0002 15.1635L20.7505 20.7831C20.9508 20.9789 21.2761 20.9794 21.477 20.7841C21.5777 20.6862 21.628 20.5578 21.628 20.4295C21.628 20.3014 21.578 20.1736 21.478 20.0758L15.3639 14.1007C15.2677 14.0064 15.1366 13.9535 15.0002 13.9535C14.8637 13.9535 14.7328 14.0066 14.6364 14.1007Z" fill="white"/>
<path d="M15.3639 14.504L21.4781 8.52893C21.6783 8.33316 21.678 8.01621 21.4771 7.82077C21.2762 7.62549 20.9508 7.62599 20.7504 7.82178L15.0001 13.4412L9.2498 7.82158C9.04941 7.62581 8.7242 7.62531 8.52329 7.82057C8.42258 7.91854 8.37222 8.04689 8.37222 8.17524C8.37222 8.30326 8.42224 8.4311 8.52226 8.5289L14.6363 14.504C14.7326 14.5983 14.8636 14.6512 15.0001 14.6512C15.1366 14.6512 15.2674 14.5981 15.3639 14.504Z" fill="white"/>
<circle cx="15" cy="15" r="14.5" transform="rotate(-180 15 15)" stroke="white"/>
</svg>
